<svg xmlns="http://www.w3.org/2000/svg" viewBox="0 0 64 64" fill="none" stroke="#8E4A30" stroke-width="2" stroke-linecap="round" stroke-linejoin="round">
  <path d="M32 56 L 32 32" />
  <path d="M32 32 C 22 32, 16 24, 18 14 C 28 14, 34 22, 32 32 Z" />
  <path d="M32 26 C 42 26, 48 18, 46 8 C 36 8, 30 16, 32 26 Z" />
  <path d="M32 56 C 26 56, 24 50, 28 46 C 32 42, 36 46, 36 50 C 36 54, 34 56, 32 56 Z" />
  <path d="M32 56 C 30 60, 28 62, 26 62" />
  <path d="M32 56 C 34 60, 36 62, 38 62" />
</svg>
